<?xml version="1.0" encoding="utf-8"?>
<svg version="1.1" xmlns:xlink="http://www.w3.org/1999/xlink" width="28px" height="28px" xmlns="http://www.w3.org/2000/svg">
  <defs>
    <filter x="256px" y="231px" width="28px" height="28px" filterUnits="userSpaceOnUse" id="filter4">
      <feOffset dx="1" dy="1" in="SourceAlpha" result="shadowOffsetInner" />
      <feGaussianBlur stdDeviation="2.5" in="shadowOffsetInner" result="shadowGaussian" />
      <feComposite in2="shadowGaussian" operator="atop" in="SourceAlpha" result="shadowComposite" />
      <feColorMatrix type="matrix" values="0 0 0 0 0  0 0 0 0 0  0 0 0 0 0  0 0 0 0.698039215686274 0  " in="shadowComposite" />
    </filter>
    <g id="widget5">
      <path d="M 269 235  C 274.04 235  278 238.96  278 244  C 278 249.04  274.04 253  269 253  C 263.96 253  260 249.04  260 244  C 260 238.96  263.96 235  269 235  Z " fill-rule="nonzero" fill="#009dd9" stroke="none" />
      <path d="M 269 235.5  C 273.76 235.5  277.5 239.24  277.5 244  C 277.5 248.76  273.76 252.5  269 252.5  C 264.24 252.5  260.5 248.76  260.5 244  C 260.5 239.24  264.24 235.5  269 235.5  Z " stroke-width="1" stroke="#ffffff" fill="none" />
    </g>
  </defs>
  <g transform="matrix(1 0 0 1 -256 -231 )">
    <use xlink:href="#widget5" filter="url(#filter4)" />
    <use xlink:href="#widget5" />
  </g>
</svg>