<?xml version="1.0" encoding="utf-8"?>
<svg version="1.1" xmlns:xlink="http://www.w3.org/1999/xlink" width="222px" height="112px" xmlns="http://www.w3.org/2000/svg">
  <g transform="matrix(1 0 0 1 -323 -273 )">
    <path d="M 40.6339285714286 85.9090909090909  C 45.2589285714286 88.8787878787879  47.5714285714286 92.4848484848485  47.5714285714286 96.7272727272727  C 47.5714285714286 100.969696969697  45.2589285714286 104.575757575758  40.6339285714286 107.545454545455  C 36.0089285714286 110.515151515152  30.3928571428571 112  23.7857142857143 112  C 17.1785714285714 112  11.5625 110.515151515152  6.9375 107.545454545455  C 2.3125 104.575757575758  0 100.969696969697  0 96.7272727272727  C 0 92.4848484848485  2.3125 88.8787878787879  6.9375 85.9090909090909  C 11.5625 82.9393939393939  17.1785714285714 81.4545454545455  23.7857142857143 81.4545454545455  C 30.3928571428571 81.4545454545455  36.0089285714286 82.9393939393939  40.6339285714286 85.9090909090909  Z M 40.6339285714286 45.1818181818182  C 45.2589285714286 48.1515151515151  47.5714285714286 51.7575757575758  47.5714285714286 56  C 47.5714285714286 60.2424242424242  45.2589285714286 63.8484848484848  40.6339285714286 66.8181818181818  C 36.0089285714286 69.7878787878788  30.3928571428571 71.2727272727273  23.7857142857143 71.2727272727273  C 17.1785714285714 71.2727272727273  11.5625 69.7878787878788  6.9375 66.8181818181818  C 2.3125 63.8484848484848  0 60.2424242424242  0 56  C 0 51.7575757575758  2.3125 48.1515151515151  6.9375 45.1818181818182  C 11.5625 42.2121212121212  17.1785714285714 40.7272727272727  23.7857142857143 40.7272727272727  C 30.3928571428571 40.7272727272727  36.0089285714286 42.2121212121212  40.6339285714286 45.1818181818182  Z M 220.823102678571 87.3011363636364  C 221.607700892857 87.8049242424242  222 88.4015151515152  222 89.0909090909091  L 222 104.363636363636  C 222 105.05303030303  221.607700892857 105.649621212121  220.823102678571 106.153409090909  C 220.038504464286 106.657196969697  219.109375 106.909090909091  218.035714285714 107  L 67.3928571428571 107  C 66.3191964285714 106.909090909091  65.3900669642857 106.657196969697  64.60546875 106.153409090909  C 63.8208705357143 105.649621212121  63.4285714285714 105.05303030303  64 104.363636363636  L 64 89.0909090909091  C 63.4285714285714 88.4015151515152  63.8208705357143 87.8049242424242  64.60546875 87.3011363636364  C 65.3900669642857 86.7973484848485  66.3191964285714 86.5454545454545  67.3928571428571 86  L 218.035714285714 86  C 219.109375 86.5454545454545  220.038504464286 86.7973484848485  220.823102678571 87.3011363636364  Z M 40.6339285714286 4.45454545454546  C 45.2589285714286 7.42424242424242  47.5714285714286 11.030303030303  47.5714285714286 15.2727272727273  C 47.5714285714286 19.5151515151515  45.2589285714286 23.1212121212121  40.6339285714286 26.0909090909091  C 36.0089285714286 29.0606060606061  30.3928571428571 30.5454545454545  23.7857142857143 30.5454545454545  C 17.1785714285714 30.5454545454545  11.5625 29.0606060606061  6.9375 26.0909090909091  C 2.3125 23.1212121212121  0 19.5151515151515  0 15.2727272727273  C 0 11.030303030303  2.3125 7.42424242424242  6.9375 4.45454545454546  C 11.5625 1.48484848484848  17.1785714285714 0  23.7857142857143 0  C 30.3928571428571 0  36.0089285714286 1.48484848484848  40.6339285714286 4.45454545454546  Z M 220.823102678571 46.5738636363636  C 221.607700892857 47.0776515151515  222 47.6742424242424  222 48.3636363636364  L 222 63.6363636363636  C 222 64.3257575757576  221.607700892857 64.9223484848485  220.823102678571 65.4261363636364  C 220.038504464286 65.9299242424242  219.109375 66.1818181818182  218.035714285714 66  L 67.3928571428571 66  C 66.3191964285714 66.1818181818182  65.3900669642857 65.9299242424242  64.60546875 65.4261363636364  C 63.8208705357143 64.9223484848485  63.4285714285714 64.3257575757576  64 63.6363636363636  L 64 48.3636363636364  C 63.4285714285714 47.6742424242424  63.8208705357143 47.0776515151515  64.60546875 46.5738636363636  C 65.3900669642857 46.0700757575758  66.3191964285714 45.8181818181818  67.3928571428571 46  L 218.035714285714 46  C 219.109375 45.8181818181818  220.038504464286 46.0700757575758  220.823102678571 46.5738636363636  Z M 220.823102678571 5.84659090909091  C 221.607700892857 6.35037878787878  222 6.9469696969697  222 7.63636363636364  L 222 22.9090909090909  C 222 23.5984848484848  221.607700892857 24.1950757575758  220.823102678571 24.6988636363636  C 220.038504464286 25.2026515151515  219.109375 25.4545454545455  218.035714285714 26  L 67.3928571428571 26  C 66.3191964285714 25.4545454545455  65.3900669642857 25.2026515151515  64.60546875 24.6988636363636  C 63.8208705357143 24.1950757575758  63.4285714285714 23.5984848484848  64 22.9090909090909  L 64 7.63636363636364  C 63.4285714285714 6.9469696969697  63.8208705357143 6.35037878787878  64.60546875 5.84659090909091  C 65.3900669642857 5.34280303030302  66.3191964285714 5.09090909090909  67.3928571428571 5  L 218.035714285714 5  C 219.109375 5.09090909090909  220.038504464286 5.34280303030302  220.823102678571 5.84659090909091  Z " fill-rule="nonzero" fill="#aaaaaa" stroke="none" transform="matrix(1 0 0 1 323 273 )" />
  </g>
</svg>