<?xml version="1.0" encoding="utf-8"?>
<svg version="1.1" xmlns:xlink="http://www.w3.org/1999/xlink" width="53px" height="25px" xmlns="http://www.w3.org/2000/svg">
  <g transform="matrix(1 0 0 1 -134 -829 )">
    <path d="M 135 840.5  A 10.5 10.5 0 0 1 145.5 830 L 175.5 830  A 10.5 10.5 0 0 1 186 840.5 L 186 842.5  A 10.5 10.5 0 0 1 175.5 853 L 145.5 853  A 10.5 10.5 0 0 1 135 842.5 L 135 840.5  Z " fill-rule="nonzero" fill="#ffffff" stroke="none" fill-opacity="0" />
    <path d="M 134.5 840.5  A 11 11 0 0 1 145.5 829.5 L 175.5 829.5  A 11 11 0 0 1 186.5 840.5 L 186.5 842.5  A 11 11 0 0 1 175.5 853.5 L 145.5 853.5  A 11 11 0 0 1 134.5 842.5 L 134.5 840.5  Z " stroke-width="1" stroke-dasharray="3,1" stroke="#999999" fill="none" stroke-dashoffset="0.5" />
  </g>
</svg>