<?xml version="1.0" encoding="utf-8"?>
<svg version="1.1" xmlns:xlink="http://www.w3.org/1999/xlink" width="47px" height="25px" xmlns="http://www.w3.org/2000/svg">
  <g transform="matrix(1 0 0 1 -435 -829 )">
    <path d="M 436 841  A 11 11 0 0 1 447 830 L 470 830  A 11 11 0 0 1 481 841 L 481 842  A 11 11 0 0 1 470 853 L 447 853  A 11 11 0 0 1 436 842 L 436 841  Z " fill-rule="nonzero" fill="#00ffff" stroke="none" />
    <path d="M 435.5 841  A 11.5 11.5 0 0 1 447 829.5 L 470 829.5  A 11.5 11.5 0 0 1 481.5 841 L 481.5 842  A 11.5 11.5 0 0 1 470 853.5 L 447 853.5  A 11.5 11.5 0 0 1 435.5 842 L 435.5 841  Z " stroke-width="1" stroke-dasharray="3,1" stroke="#999999" fill="none" stroke-dashoffset="0.5" />
  </g>
</svg>