<?xml version="1.0" encoding="utf-8"?>
<svg version="1.1" xmlns:xlink="http://www.w3.org/1999/xlink" width="49px" height="25px" xmlns="http://www.w3.org/2000/svg">
  <g transform="matrix(1 0 0 1 -338 -829 )">
    <path d="M 339 841  A 11 11 0 0 1 350 830 L 375 830  A 11 11 0 0 1 386 841 L 386 842  A 11 11 0 0 1 375 853 L 350 853  A 11 11 0 0 1 339 842 L 339 841  Z " fill-rule="nonzero" fill="#ffffff" stroke="none" />
    <path d="M 338.5 841  A 11.5 11.5 0 0 1 350 829.5 L 375 829.5  A 11.5 11.5 0 0 1 386.5 841 L 386.5 842  A 11.5 11.5 0 0 1 375 853.5 L 350 853.5  A 11.5 11.5 0 0 1 338.5 842 L 338.5 841  Z " stroke-width="1" stroke-dasharray="3,1" stroke="#aaaaaa" fill="none" stroke-dashoffset="0.5" />
  </g>
</svg>