<?xml version="1.0" encoding="utf-8"?>
<svg version="1.1" xmlns:xlink="http://www.w3.org/1999/xlink" width="31px" height="30px" xmlns="http://www.w3.org/2000/svg">
  <defs>
    <filter x="253px" y="417px" width="31px" height="30px" filterUnits="userSpaceOnUse" id="filter14">
      <feOffset dx="1" dy="1" in="SourceAlpha" result="shadowOffsetInner" />
      <feGaussianBlur stdDeviation="2.5" in="shadowOffsetInner" result="shadowGaussian" />
      <feComposite in2="shadowGaussian" operator="atop" in="SourceAlpha" result="shadowComposite" />
      <feColorMatrix type="matrix" values="0 0 0 0 0  0 0 0 0 0  0 0 0 0 0  0 0 0 0.698039215686274 0  " in="shadowComposite" />
    </filter>
    <g id="widget15">
      <path d="M 267.5 421  C 273.38 421  278 425.4  278 431  C 278 436.6  273.38 441  267.5 441  C 261.62 441  257 436.6  257 431  C 257 425.4  261.62 421  267.5 421  Z " fill-rule="nonzero" fill="#009dd9" stroke="none" />
      <path d="M 267.5 421.5  C 273.1 421.5  277.5 425.68  277.5 431  C 277.5 436.32  273.1 440.5  267.5 440.5  C 261.9 440.5  257.5 436.32  257.5 431  C 257.5 425.68  261.9 421.5  267.5 421.5  Z " stroke-width="1" stroke="#ffffff" fill="none" />
    </g>
  </defs>
  <g transform="matrix(1 0 0 1 -253 -417 )">
    <use xlink:href="#widget15" filter="url(#filter14)" />
    <use xlink:href="#widget15" />
  </g>
</svg>