<?xml version="1.0" encoding="utf-8"?>
<svg version="1.1" xmlns:xlink="http://www.w3.org/1999/xlink" width="32px" height="32px" xmlns="http://www.w3.org/2000/svg">
  <g transform="matrix(1 0 0 1 -673 -315 )">
    <path d="M 689 315  C 697.96 315  705 322.04  705 331  C 705 339.96  697.96 347  689 347  C 680.04 347  673 339.96  673 331  C 673 322.04  680.04 315  689 315  Z " fill-rule="nonzero" fill="#ffffff" stroke="none" />
    <path d="M 689 315.5  C 697.68 315.5  704.5 322.32  704.5 331  C 704.5 339.68  697.68 346.5  689 346.5  C 680.32 346.5  673.5 339.68  673.5 331  C 673.5 322.32  680.32 315.5  689 315.5  Z " stroke-width="1" stroke="#797979" fill="none" />
  </g>
</svg>