<?xml version="1.0" encoding="utf-8"?>
<svg version="1.1" xmlns:xlink="http://www.w3.org/1999/xlink" width="37px" height="37px" xmlns="http://www.w3.org/2000/svg">
  <defs>
    <filter x="571px" y="353px" width="37px" height="37px" filterUnits="userSpaceOnUse" id="filter8">
      <feOffset dx="1" dy="1" in="SourceAlpha" result="shadowOffsetInner" />
      <feGaussianBlur stdDeviation="2.5" in="shadowOffsetInner" result="shadowGaussian" />
      <feComposite in2="shadowGaussian" operator="atop" in="SourceAlpha" result="shadowComposite" />
      <feColorMatrix type="matrix" values="0 0 0 0 0  0 0 0 0 0  0 0 0 0 0  0 0 0 0.349019607843137 0  " in="shadowComposite" />
    </filter>
    <g id="widget9">
      <path d="M 588.5 357  C 596.06 357  602 362.94  602 370.5  C 602 378.06  596.06 384  588.5 384  C 580.94 384  575 378.06  575 370.5  C 575 362.94  580.94 357  588.5 357  Z " fill-rule="nonzero" fill="#00ffff" stroke="none" />
      <path d="M 588.5 357.5  C 595.78 357.5  601.5 363.22  601.5 370.5  C 601.5 377.78  595.78 383.5  588.5 383.5  C 581.22 383.5  575.5 377.78  575.5 370.5  C 575.5 363.22  581.22 357.5  588.5 357.5  Z " stroke-width="1" stroke="#797979" fill="none" />
    </g>
  </defs>
  <g transform="matrix(1 0 0 1 -571 -353 )">
    <use xlink:href="#widget9" filter="url(#filter8)" />
    <use xlink:href="#widget9" />
  </g>
</svg>