<?xml version="1.0" encoding="utf-8"?>
<svg version="1.1" xmlns:xlink="http://www.w3.org/1999/xlink" width="49px" height="25px" xmlns="http://www.w3.org/2000/svg">
  <g transform="matrix(1 0 0 1 -293 -737 )">
    <path d="M 294 748.5  A 10.5 10.5 0 0 1 304.5 738 L 330.5 738  A 10.5 10.5 0 0 1 341 748.5 L 341 750.5  A 10.5 10.5 0 0 1 330.5 761 L 304.5 761  A 10.5 10.5 0 0 1 294 750.5 L 294 748.5  Z " fill-rule="nonzero" fill="#ffffff" stroke="none" fill-opacity="0" />
    <path d="M 293.5 748.5  A 11 11 0 0 1 304.5 737.5 L 330.5 737.5  A 11 11 0 0 1 341.5 748.5 L 341.5 750.5  A 11 11 0 0 1 330.5 761.5 L 304.5 761.5  A 11 11 0 0 1 293.5 750.5 L 293.5 748.5  Z " stroke-width="1" stroke-dasharray="3,1" stroke="#999999" fill="none" stroke-dashoffset="0.5" />
  </g>
</svg>