<?xml version="1.0" encoding="utf-8"?>
<svg version="1.1" xmlns:xlink="http://www.w3.org/1999/xlink" width="33px" height="25px" xmlns="http://www.w3.org/2000/svg">
  <g transform="matrix(1 0 0 1 -410 -153 )">
    <path d="M 6.1875 12.5  L 10.3125 12.5  L 10.3125 20.8333333333333  L 6.1875 20.8333333333333  L 6.1875 12.5  Z M 13 4.16666666666667  L 16 4.16666666666667  L 16 20.8333333333333  L 13 20.8333333333333  L 13 4.16666666666667  Z M 2 23  L 33 23  L 33 25  L 0 25  L 0 0  L 2 0  L 2 23  Z M 18 8.33333333333333  L 22.6875 8.33333333333333  L 22.6875 20.8333333333333  L 18 20.8333333333333  L 18 8.33333333333333  Z M 24.75 2.08333333333333  L 28.875 2.08333333333333  L 28.875 20.8333333333333  L 24.75 20.8333333333333  L 24.75 2.08333333333333  Z " fill-rule="nonzero" fill="#000000" stroke="none" transform="matrix(1 0 0 1 410 153 )" />
  </g>
</svg>