<?xml version="1.0" encoding="utf-8"?>
<svg version="1.1" xmlns:xlink="http://www.w3.org/1999/xlink" width="170px" height="170px" xmlns="http://www.w3.org/2000/svg">
  <g transform="matrix(1 0 0 1 -181 -310 )">
    <path d="M 266 310  C 313.6 310  351 347.4  351 395  C 351 442.6  313.6 480  266 480  C 218.4 480  181 442.6  181 395  C 181 347.4  218.4 310  266 310  Z " fill-rule="nonzero" fill="#ffffff" stroke="none" />
    <path d="M 266 310.5  C 313.32 310.5  350.5 347.68  350.5 395  C 350.5 442.32  313.32 479.5  266 479.5  C 218.68 479.5  181.5 442.32  181.5 395  C 181.5 347.68  218.68 310.5  266 310.5  Z " stroke-width="1" stroke="#797979" fill="none" />
  </g>
</svg>